<svg width="32" height="33" viewBox="0 0 32 33" fill="none" xmlns="http://www.w3.org/2000/svg">
<circle cx="16" cy="17" r="16" transform="rotate(-180 16 17)" fill="white" fill-opacity="0.4"/>
<path d="M15.5352 21.668C15.6719 21.8047 15.8359 21.8867 16 21.8867C16.1914 21.8867 16.3555 21.8047 16.4648 21.668L21.7695 16.3633C21.9063 16.2266 21.9609 16.0625 21.9609 15.8984C21.9609 15.707 21.9063 15.543 21.7695 15.4336L21.168 14.832C21.0586 14.6953 20.8945 14.6133 20.7031 14.6133C20.5391 14.6133 20.375 14.668 20.2383 14.8047L16 19.043L11.7617 14.8047C11.6523 14.668 11.4883 14.6133 11.2969 14.6133C11.1328 14.6133 10.9688 14.6953 10.832 14.832L10.2305 15.4336C10.1211 15.543 10.0391 15.707 10.0391 15.8984C10.0391 16.0625 10.1211 16.2266 10.2305 16.3633L15.5352 21.668Z" fill="black"/>
</svg>